<?xml version="1.0" standalone="no"?>
<!DOCTYPE svg PUBLIC "-//W3C//DTD SVG 1.1//EN" "http://www.w3.org/Graphics/SVG/1.1/DTD/svg11.dtd" >
<svg>
<metadata>
Created by FontForge 20120731 at Mon Jul 11 21:00:53 2016
 By www
Copyright (C) 2004 Hoefler &#38; Frere-Jones Typography, Inc. www.typography.com
</metadata>
<defs>
<font id="Whitney-BookItalic" horiz-adv-x="456" >
  <font-face 
    font-family="Whitney"
    font-weight="500"
    font-style="italic"
    font-stretch="normal"
    units-per-em="1000"
    panose-1="0 0 0 0 0 0 0 0 0 0"
    ascent="800"
    descent="-200"
    x-height="473"
    cap-height="690"
    bbox="-134 -200 1013 935"
    underline-thickness="20"
    underline-position="-123"
    slope="-12"
    stemh="59"
    stemv="65"
    unicode-range="U+0020-FB02"
  />
<missing-glyph horiz-adv-x="500" 
 />
    <glyph glyph-name=".notdef" horiz-adv-x="500" 
 />
    <glyph glyph-name="space" unicode=" " horiz-adv-x="216" 
 />
    <glyph glyph-name="exclam" unicode="!" horiz-adv-x="262" 
d="M243 690l-95 -490l-47 -10l62 500h80zM148 98l-16 -98h-77l15 98h78z" />
    <glyph glyph-name="quotedbl" unicode="&#x22;" horiz-adv-x="382" 
d="M385 676l-51 -185l-36 9l7 176h80zM217 676l-51 -185l-36 9l7 176h80z" />
    <glyph glyph-name="numbersign" unicode="#" horiz-adv-x="639" 
d="M617 440h-119l-41 -204h119l10 -57h-140l-35 -181h-53l36 181h-186l-37 -186l-51 11l35 175h-108v57h118l41 204h-119l-10 57h140l35 181h55l-36 -181h185l37 186l50 -11l-35 -175h109v-57zM445 440h-185l-41 -204h185z" />
    <glyph glyph-name="dollar" unicode="$" horiz-adv-x="509" 
d="M404 671c37 -8 68 -20 95 -33l-15 -61c-26 17 -61 31 -98 41l-78 -247c106 -55 147 -103 147 -181c0 -123 -99 -196 -227 -196c-13 0 -25 1 -38 2c1 0 -37 -119 -37 -119l-48 11l36 115c-51 11 -95 30 -127 48l14 62c39 -24 83 -45 131 -57l87 276
c-89 46 -141 90 -141 173c0 103 81 176 206 176c15 0 29 -1 43 -2l24 76l49 -12zM207 48c8 -1 16 -1 25 -1c94 0 162 54 162 138c0 51 -27 84 -105 125c0 1 -82 -262 -82 -262zM339 627c-11 1 -21 2 -31 2c-92 0 -144 -49 -144 -120c0 -46 27 -78 101 -117z" />
    <glyph glyph-name="percent" unicode="%" horiz-adv-x="834" 
d="M366 527c0 -117 -71 -223 -163 -223c-82 0 -126 63 -126 157c0 117 70 223 162 223c84 0 127 -64 127 -157zM728 671l-536 -678l-53 12l536 678zM238 637c-61 0 -104 -87 -104 -180c0 -71 29 -106 70 -106c62 0 105 86 105 179c0 72 -31 107 -71 107zM790 215
c0 -117 -71 -223 -163 -223c-83 0 -126 64 -126 157c0 117 71 223 163 223c82 0 126 -63 126 -157zM733 219c0 71 -29 106 -70 106c-62 0 -105 -86 -105 -179c0 -72 30 -107 70 -107c62 0 105 87 105 180z" />
    <glyph glyph-name="ampersand" unicode="&#x26;" horiz-adv-x="641" 
d="M487 165l115 -155l-70 -16l-86 115c-67 -79 -145 -122 -231 -122c-106 0 -183 64 -183 169c0 106 75 183 206 232c-38 53 -56 95 -56 147c0 98 74 168 179 168c57 0 106 -15 151 -40l-17 -63c-47 29 -93 45 -137 45c-67 0 -110 -43 -110 -104c0 -41 18 -77 56 -128
l147 -199c30 51 57 114 79 188l60 -14c-29 -88 -63 -163 -103 -223zM412 155l-140 188c-119 -41 -172 -104 -172 -183c0 -71 48 -116 122 -116c66 0 132 37 190 111z" />
    <glyph glyph-name="quoteright" unicode="&#x2019;" horiz-adv-x="214" 
d="M236 690l-113 -223l-35 9l68 214h80z" />
    <glyph glyph-name="parenleft" unicode="(" horiz-adv-x="393" 
d="M396 662c-173 -107 -253 -249 -253 -419c0 -122 45 -209 149 -325l-62 -14c-96 102 -156 196 -156 333c0 190 91 355 326 490z" />
    <glyph glyph-name="parenright" unicode=")" horiz-adv-x="393" 
d="M343 390c0 -190 -90 -356 -325 -491l4 66c172 107 252 248 252 418c0 123 -45 209 -149 326l62 14c96 -103 156 -197 156 -333z" />
    <glyph glyph-name="asterisk" unicode="*" horiz-adv-x="401" 
d="M397 576l-117 -51l65 -112l-18 -12l-84 97l-86 -97l-17 12l64 112l-115 51l6 20l124 -26l12 126h23l12 -126l124 26z" />
    <glyph glyph-name="plus" unicode="+" horiz-adv-x="570" 
d="M525 311h-199l-31 -202h-58l32 202h-199l8 54h199l32 202h57l-31 -202h198z" />
    <glyph glyph-name="comma" unicode="," horiz-adv-x="214" 
d="M142 98l-132 -231l-34 9l86 222h80z" />
    <glyph glyph-name="hyphen" unicode="-" horiz-adv-x="360" 
d="M312 316l-9 -66h-242l8 66h243z" />
    <glyph glyph-name="period" unicode="." horiz-adv-x="214" 
d="M124 98l-16 -98h-78l16 98h78z" />
    <glyph glyph-name="slash" unicode="/" horiz-adv-x="512" 
d="M562 684l-595 -808l-59 13l594 808z" />
    <glyph glyph-name="zero" unicode="0" horiz-adv-x="572" 
d="M541 430c0 -252 -120 -443 -281 -443c-125 0 -196 105 -196 259c0 252 120 443 282 443c124 0 195 -105 195 -259zM474 427c0 132 -51 205 -133 205c-118 0 -210 -160 -210 -383c0 -132 51 -205 133 -205c117 0 210 160 210 383z" />
    <glyph glyph-name="one" unicode="1" horiz-adv-x="338" 
d="M308 679l-107 -679h-64l97 608l-150 -56v53l173 74h51z" />
    <glyph glyph-name="two" unicode="2" horiz-adv-x="510" 
d="M488 528c0 -81 -37 -138 -140 -236l-244 -234h313v-58h-409l7 49l297 285c74 72 109 124 109 189s-42 107 -114 107c-58 0 -120 -26 -185 -71v64c56 39 119 66 191 66c112 0 175 -66 175 -161z" />
    <glyph glyph-name="three" unicode="3" horiz-adv-x="491" 
d="M472 536c0 -107 -80 -159 -161 -181c71 -26 120 -77 120 -158c0 -126 -99 -210 -233 -210c-68 0 -134 22 -190 56l20 60c58 -38 117 -59 174 -59c94 0 163 56 163 150c0 86 -62 134 -171 134h-22v58h29c119 0 204 50 204 142c0 66 -48 103 -120 103
c-57 0 -116 -21 -174 -60v62c55 35 112 56 179 56c111 0 182 -60 182 -153z" />
    <glyph glyph-name="four" unicode="4" horiz-adv-x="568" 
d="M535 215l-9 -54h-112l-26 -161h-60l27 161h-327l7 45l383 472h79l-75 -463h113zM362 215l63 391l-316 -391h253z" />
    <glyph glyph-name="five" unicode="5" horiz-adv-x="494" 
d="M483 620h-269l-47 -203c182 -24 271 -94 271 -216c0 -133 -105 -214 -229 -214c-76 0 -137 21 -193 51l20 59c58 -33 113 -52 177 -52c92 0 159 59 159 149c0 101 -79 154 -274 172l70 310h315v-56z" />
    <glyph glyph-name="six" unicode="6" horiz-adv-x="537" 
d="M138 346c55 35 116 60 184 60c103 0 171 -62 171 -177c0 -134 -106 -242 -237 -242c-121 0 -198 87 -198 238c0 231 157 415 411 466v-60c-175 -35 -291 -143 -331 -285zM125 283c-2 -18 -3 -36 -3 -54c0 -117 52 -186 138 -186c94 0 167 79 167 181
c0 82 -44 126 -119 126c-61 0 -123 -25 -183 -67z" />
    <glyph glyph-name="seven" unicode="7" horiz-adv-x="506" 
d="M525 676l-8 -47l-372 -636l-59 15l358 611h-333v57h414z" />
    <glyph glyph-name="eight" unicode="8" horiz-adv-x="535" 
d="M311 376c87 37 134 87 134 151c0 65 -49 107 -127 107c-89 0 -139 -58 -139 -120c0 -52 33 -91 132 -138zM263 336c-110 -42 -161 -100 -161 -169c0 -73 65 -125 154 -125c92 0 159 58 159 137c0 63 -32 102 -152 157zM206 365c-59 35 -92 80 -92 144
c0 97 77 180 206 180c119 0 189 -68 189 -158c0 -88 -59 -143 -143 -182c76 -42 116 -93 116 -165c0 -112 -95 -196 -230 -196c-138 0 -215 77 -215 174c0 92 59 155 169 203z" />
    <glyph glyph-name="nine" unicode="9" horiz-adv-x="537" 
d="M427 319c-54 -35 -114 -57 -180 -57c-105 0 -171 63 -171 179c0 136 104 248 236 248c122 0 198 -87 198 -238c0 -234 -159 -415 -413 -466v60c172 34 287 136 330 274zM442 384c3 20 4 41 4 63c0 117 -51 186 -138 186c-95 0 -166 -84 -166 -186c0 -83 42 -129 119 -129
c59 0 121 25 181 66z" />
    <glyph glyph-name="colon" unicode=":" horiz-adv-x="223" 
d="M187 473l-15 -97h-78l15 97h78zM129 98l-15 -98h-78l15 98h78z" />
    <glyph glyph-name="semicolon" unicode=";" horiz-adv-x="223" 
d="M192 473l-15 -97h-78l15 97h78zM137 98l-132 -231l-34 9l86 222h80z" />
    <glyph glyph-name="less" unicode="&#x3c;" horiz-adv-x="570" 
d="M472 89l-402 223l8 52l474 223l-11 -67l-399 -184l340 -185z" />
    <glyph glyph-name="equal" unicode="=" horiz-adv-x="604" 
d="M554 418h-450l10 60h450zM519 198h-450l10 60h450z" />
    <glyph glyph-name="greater" unicode="&#x3e;" horiz-adv-x="570" 
d="M131 587l402 -223l-8 -52l-474 -223l11 67l399 184l-341 185z" />
    <glyph glyph-name="question" unicode="?" horiz-adv-x="459" 
d="M190 357l24 10c127 51 180 98 180 176c0 64 -46 100 -114 100c-61 0 -117 -23 -180 -65v66c55 36 111 59 189 59c108 0 173 -61 173 -153c0 -110 -68 -168 -213 -230l-29 -120l-46 -10zM221 98l-16 -98h-76l15 98h77z" />
    <glyph glyph-name="at" unicode="@" horiz-adv-x="829" 
d="M485 206l31 176c-22 9 -39 13 -65 13c-78 0 -158 -83 -158 -212c0 -58 23 -84 58 -84c36 0 71 30 134 107zM481 145c-55 -65 -94 -98 -145 -98c-55 0 -103 45 -103 129c0 159 110 269 224 269c44 0 86 -12 123 -28l-36 -211c-2 -14 -5 -35 -5 -53c0 -40 21 -69 69 -69
c73 0 135 81 135 227c0 182 -111 284 -285 284c-205 0 -371 -168 -371 -411c0 -199 117 -295 290 -295c83 0 157 18 216 48l5 -29c-56 -28 -135 -48 -225 -48c-200 0 -322 116 -322 323c0 252 178 442 410 442c198 0 316 -122 316 -313c0 -164 -79 -265 -177 -265
c-68 0 -112 36 -119 98z" />
    <glyph glyph-name="A" unicode="A" horiz-adv-x="642" 
d="M574 8l-66 -15l-47 230h-277l-115 -223h-71l368 694h61zM449 282l-66 325l-169 -325h235z" />
    <glyph glyph-name="B" unicode="B" horiz-adv-x="526" 
d="M492 536c0 -88 -57 -146 -131 -173c65 -26 112 -73 112 -150c0 -135 -105 -213 -255 -213h-169l110 690h144c118 0 189 -57 189 -154zM424 529c0 66 -46 104 -124 104h-84l-38 -243h76c96 0 170 54 170 139zM405 209c0 77 -57 125 -160 125h-76l-45 -277h101
c110 0 180 57 180 152z" />
    <glyph glyph-name="C" unicode="C" horiz-adv-x="580" 
d="M582 641l-17 -70c-47 44 -101 70 -166 70c-159 0 -268 -168 -268 -356c0 -152 79 -236 191 -236c63 0 123 20 179 60v-68c-54 -34 -114 -53 -183 -53c-149 0 -256 106 -256 293c0 221 142 421 340 421c80 0 137 -24 180 -61z" />
    <glyph glyph-name="D" unicode="D" horiz-adv-x="644" 
d="M614 406c0 -123 -42 -226 -115 -298c-69 -69 -164 -108 -276 -108h-174l110 690h163c189 0 292 -108 292 -284zM543 402c0 144 -76 229 -229 229h-97l-91 -572h103c89 0 163 31 218 85c61 60 96 150 96 258z" />
    <glyph glyph-name="E" unicode="E" horiz-adv-x="472" 
d="M496 690l-10 -59h-269l-38 -240h210v-60h-220l-43 -272h279l-9 -59h-347l110 690h337z" />
    <glyph glyph-name="F" unicode="F" horiz-adv-x="446" 
d="M483 690l-10 -59h-256l-40 -251h202v-60h-212l-50 -320h-68l110 690h324z" />
    <glyph glyph-name="G" unicode="G" horiz-adv-x="637" 
d="M586 362l-51 -313c-63 -38 -128 -61 -207 -61c-158 0 -267 116 -267 292c0 221 147 422 347 422c80 0 144 -23 189 -59l-17 -70c-46 42 -110 68 -179 68c-154 0 -270 -166 -270 -357c0 -151 86 -236 201 -236c60 0 108 16 143 37l35 217h-163v60h239z" />
    <glyph glyph-name="H" unicode="H" horiz-adv-x="659" 
d="M643 690l-109 -690h-67l52 331h-350l-52 -331h-68l110 690h67l-47 -299h350l47 299h67z" />
    <glyph glyph-name="I" unicode="I" horiz-adv-x="256" 
d="M233 690l-110 -690h-67l110 690h67z" />
    <glyph glyph-name="J" unicode="J" horiz-adv-x="351" 
d="M339 690l-81 -514c-20 -127 -86 -182 -188 -182c-30 0 -54 5 -72 8v63c22 -6 45 -11 71 -11c66 0 108 33 123 125l80 511h67z" />
    <glyph glyph-name="K" unicode="K" horiz-adv-x="569" 
d="M602 690l-357 -324l269 -357l-70 -16l-271 363l-56 -356h-68l110 690h67l-50 -314l341 314h85z" />
    <glyph glyph-name="L" unicode="L" horiz-adv-x="437" 
d="M373 0h-324l110 690h67l-101 -631h248v-59z" />
    <glyph glyph-name="M" unicode="M" horiz-adv-x="861" 
d="M807 690l-55 -690h-65l48 589l-320 -593h-47l-133 593l-138 -589h-62l164 690h82l127 -595l315 595h84z" />
    <glyph glyph-name="N" unicode="N" horiz-adv-x="658" 
d="M643 690l-110 -690h-41l-288 586l-92 -586h-63l110 690h64l271 -553l87 553h62z" />
    <glyph glyph-name="O" unicode="O" horiz-adv-x="690" 
d="M660 404c0 -232 -149 -417 -337 -417c-167 0 -261 128 -261 299c0 232 149 417 336 417c168 0 262 -128 262 -299zM590 402c0 146 -75 242 -195 242c-147 0 -263 -155 -263 -356c0 -146 75 -242 194 -242c148 0 264 155 264 356z" />
    <glyph glyph-name="P" unicode="P" horiz-adv-x="503" 
d="M504 511c0 -131 -101 -220 -263 -220h-78l-46 -291h-68l110 690h129c139 0 216 -62 216 -179zM437 505c0 80 -49 126 -150 126h-70l-44 -280h79c124 0 185 68 185 154z" />
    <glyph glyph-name="Q" unicode="Q" horiz-adv-x="690" 
d="M571 -80l-18 -65l-302 138c-129 58 -189 143 -189 293c0 232 149 417 336 417c168 0 262 -129 262 -297c0 -206 -112 -367 -269 -407zM590 402c0 146 -75 242 -195 242c-147 0 -263 -155 -263 -356c0 -146 75 -243 194 -243c148 0 264 156 264 357z" />
    <glyph glyph-name="R" unicode="R" horiz-adv-x="540" 
d="M505 521c0 -110 -73 -187 -188 -208l169 -305l-69 -15l-174 312h-78l-48 -305h-68l110 690h133c131 0 213 -56 213 -169zM437 515c0 76 -50 116 -146 116h-74l-42 -268h79c117 0 183 62 183 152z" />
    <glyph glyph-name="S" unicode="S" horiz-adv-x="490" 
d="M471 656l-16 -66c-42 29 -92 51 -149 51c-86 0 -132 -57 -132 -121c0 -51 31 -84 114 -133c111 -66 148 -116 148 -196c0 -125 -100 -200 -221 -200c-75 0 -147 26 -190 55l16 66c49 -36 113 -63 178 -63c84 0 148 53 148 133c0 59 -24 90 -108 140
c-109 65 -152 108 -152 190c0 106 82 187 205 187c66 0 121 -20 159 -43z" />
    <glyph glyph-name="T" unicode="T" horiz-adv-x="541" 
d="M580 631h-212l-99 -631h-68l100 631h-209l10 59h478v-59z" />
    <glyph glyph-name="U" unicode="U" horiz-adv-x="658" 
d="M652 690l-71 -451c-26 -162 -127 -250 -272 -250c-138 0 -229 77 -229 221c0 22 2 50 6 75l64 405h67l-65 -414c-3 -20 -5 -43 -5 -61c0 -104 59 -166 166 -166c115 0 182 74 202 202l70 439h67z" />
    <glyph glyph-name="V" unicode="V" horiz-adv-x="634" 
d="M671 690l-367 -694h-54l-146 686l67 15l121 -604l307 597h72z" />
    <glyph glyph-name="W" unicode="W" horiz-adv-x="983" 
d="M1013 690l-313 -690h-54l-99 590l-286 -590h-54l-92 682l70 15l70 -584l275 577h67l92 -577l252 577h72z" />
    <glyph glyph-name="X" unicode="X" horiz-adv-x="597" 
d="M613 690l-259 -329l170 -352l-69 -15l-146 313l-237 -307h-77l287 362l-155 319l68 14l130 -280l211 275h77z" />
    <glyph glyph-name="Y" unicode="Y" horiz-adv-x="589" 
d="M634 690l-298 -403l-45 -287h-67l45 286l-168 397l69 14l142 -350l246 343h76z" />
    <glyph glyph-name="Z" unicode="Z" horiz-adv-x="572" 
d="M586 690l-7 -47l-468 -585h375v-58h-468l7 47l469 585h-349v58h441z" />
    <glyph glyph-name="bracketleft" unicode="[" horiz-adv-x="387" 
d="M409 690l-8 -51h-181l-109 -693h176v-51h-246l125 795h243z" />
    <glyph glyph-name="backslash" unicode="\" horiz-adv-x="512" 
d="M550 -112l-59 -13l-473 809l60 12z" />
    <glyph glyph-name="bracketright" unicode="]" horiz-adv-x="387" 
d="M363 690l-125 -795h-243l8 51h180l110 693h-176v51h246z" />
    <glyph glyph-name="asciicircum" unicode="^" 
d="M408 554l-34 -7l-82 85l-106 -82h-44l128 145h61z" />
    <glyph glyph-name="underscore" unicode="_" horiz-adv-x="461" 
d="M417 -52l-8 -53h-465l9 53h464z" />
    <glyph glyph-name="quoteleft" unicode="&#x2018;" horiz-adv-x="214" 
d="M87 473l113 223l35 -9l-68 -214h-80z" />
    <glyph glyph-name="a" unicode="a" horiz-adv-x="484" 
d="M332 97c-61 -64 -114 -107 -170 -107c-75 0 -123 57 -123 159c0 192 124 331 268 331c49 0 91 -11 137 -30l-51 -313l-3 -137h-56zM334 163l40 248c-23 10 -42 14 -75 14c-101 0 -195 -110 -195 -270c0 -71 26 -109 69 -109c42 0 87 38 161 117z" />
    <glyph glyph-name="b" unicode="b" horiz-adv-x="488" 
d="M42 27l108 679l65 12l-51 -320c46 49 91 85 149 85c82 0 136 -62 136 -174c0 -188 -117 -315 -261 -315c-49 0 -100 14 -146 33zM112 66c27 -12 53 -18 85 -18c99 0 187 94 187 254c0 78 -30 125 -82 125c-44 0 -87 -34 -149 -102z" />
    <glyph glyph-name="c" unicode="c" horiz-adv-x="414" 
d="M403 443l-17 -63c-36 29 -69 47 -115 47c-90 0 -166 -110 -166 -234c0 -94 49 -147 124 -147c40 0 74 14 119 45v-60c-38 -26 -80 -41 -126 -41c-107 0 -181 73 -181 199c0 158 100 294 234 294c56 0 95 -17 128 -40z" />
    <glyph glyph-name="d" unicode="d" horiz-adv-x="488" 
d="M489 718l-92 -585l-3 -133h-57l-2 87c-53 -59 -101 -97 -160 -97c-82 0 -136 63 -136 175c0 187 117 315 259 315c35 0 63 -8 88 -16l37 242zM377 407c-29 12 -53 18 -85 18c-99 0 -188 -94 -188 -254c0 -78 30 -125 82 -125c44 0 87 35 149 102z" />
    <glyph glyph-name="e" unicode="e" horiz-adv-x="447" 
d="M116 284h227c7 92 -20 148 -87 148c-57 0 -116 -56 -140 -148zM107 235c-1 -14 -2 -29 -2 -44c0 -92 44 -146 119 -146c52 0 94 20 150 60v-61c-50 -35 -99 -54 -159 -54c-108 0 -175 73 -175 197c0 179 109 296 219 296c96 0 150 -64 150 -176c0 -23 -3 -49 -7 -72h-295
z" />
    <glyph glyph-name="f" unicode="f" horiz-adv-x="280" 
d="M333 655c-10 2 -26 4 -44 4c-44 0 -68 -24 -75 -69l-19 -117h95v-54h-103l-93 -591l-66 -11l95 602h-70l8 54h71l20 126c13 82 60 116 138 116c18 0 33 -1 43 -3v-57z" />
    <glyph glyph-name="g" unicode="g" horiz-adv-x="488" 
d="M446 446l-67 -428c-21 -134 -92 -198 -210 -198c-55 0 -113 16 -158 36l16 57c48 -23 99 -37 147 -37c82 0 126 49 140 136l12 74c-46 -50 -91 -86 -150 -86c-82 0 -136 62 -136 166c0 185 116 314 260 314c49 0 101 -15 146 -34zM377 407c-29 12 -53 18 -85 18
c-99 0 -187 -96 -187 -252c0 -75 31 -117 83 -117c45 0 89 35 149 102z" />
    <glyph glyph-name="h" unicode="h" horiz-adv-x="488" 
d="M441 380c0 -9 -1 -28 -3 -39l-54 -341h-64l52 330c2 10 3 24 3 32c0 40 -18 63 -58 63c-43 0 -99 -46 -169 -128l-46 -297h-64l112 706l65 12l-55 -343c58 63 115 108 171 108c70 0 110 -37 110 -103z" />
    <glyph glyph-name="i" unicode="i" horiz-adv-x="224" 
d="M222 634c0 -26 -21 -47 -47 -47s-47 21 -47 47c0 27 21 48 47 48s47 -21 47 -48zM182 473l-76 -473h-64l76 473h64z" />
    <glyph glyph-name="j" unicode="j" horiz-adv-x="224" 
d="M222 634c0 -26 -21 -47 -47 -47s-47 21 -47 47c0 27 21 48 47 48s47 -21 47 -48zM182 473l-87 -546c-13 -79 -54 -107 -118 -107c-16 0 -34 3 -43 4v57c12 -3 26 -5 39 -5c32 0 53 19 60 60l85 537h64z" />
    <glyph glyph-name="k" unicode="k" horiz-adv-x="437" 
d="M445 473l-235 -214l178 -253l-69 -13l-177 258l-40 -251h-64l112 706l65 12l-70 -448l215 203h85z" />
    <glyph glyph-name="l" unicode="l" horiz-adv-x="224" 
d="M220 718l-114 -718h-64l112 706z" />
    <glyph glyph-name="m" unicode="m" horiz-adv-x="759" 
d="M425 297l-47 -297h-64l52 330c2 12 4 24 4 32c0 40 -14 63 -55 63s-98 -46 -167 -128l-46 -297h-64l54 340l3 133h56l2 -105c61 67 121 115 177 115c70 0 105 -37 105 -103v-4c59 65 116 107 170 107c69 0 107 -37 107 -103c0 -12 -1 -26 -3 -39l-54 -341h-64l52 330
c2 12 4 24 4 32c0 40 -16 63 -57 63c-40 0 -96 -46 -165 -128z" />
    <glyph glyph-name="n" unicode="n" horiz-adv-x="488" 
d="M441 380c0 -9 -1 -28 -3 -39l-54 -341h-64l52 330c2 11 3 24 3 32c0 40 -18 63 -58 63c-43 0 -99 -46 -169 -128l-46 -297h-64l54 340l3 133h56l2 -105c61 67 120 115 178 115c70 0 110 -37 110 -103z" />
    <glyph glyph-name="o" unicode="o" horiz-adv-x="477" 
d="M437 282c0 -154 -94 -292 -227 -292c-105 0 -169 74 -169 201c0 154 94 292 226 292c105 0 170 -74 170 -201zM372 280c0 107 -50 150 -109 150c-94 0 -158 -120 -158 -236c0 -108 50 -151 110 -151c94 0 157 120 157 237z" />
    <glyph glyph-name="p" unicode="p" horiz-adv-x="488" 
d="M9 -183l83 523l3 133h56l2 -86c53 58 101 96 161 96c81 0 136 -62 136 -174c0 -188 -118 -315 -260 -315c-35 0 -63 7 -87 15l-29 -180zM112 66c28 -12 53 -18 85 -18c99 0 187 94 187 254c0 78 -29 125 -82 125c-44 0 -87 -34 -149 -102z" />
    <glyph glyph-name="q" unicode="q" horiz-adv-x="488" 
d="M446 446l-98 -618l-65 -11l41 259c-46 -50 -91 -86 -149 -86c-82 0 -136 63 -136 175c0 187 117 315 261 315c49 0 101 -15 146 -34zM377 407c-29 12 -53 18 -85 18c-99 0 -188 -94 -188 -254c0 -78 30 -125 82 -125c44 0 87 35 149 102z" />
    <glyph glyph-name="r" unicode="r" horiz-adv-x="317" 
d="M328 417c-78 -8 -132 -59 -181 -135l-45 -282h-64l54 340l3 133h56l2 -117c46 70 104 125 175 125v-64z" />
    <glyph glyph-name="s" unicode="s" horiz-adv-x="381" 
d="M350 448l-16 -62c-37 25 -77 42 -121 42c-52 0 -85 -32 -85 -70c0 -35 20 -52 77 -80c91 -46 126 -77 126 -144c0 -95 -71 -144 -163 -144c-63 0 -121 23 -160 51l17 60c40 -31 92 -56 151 -56c51 0 93 32 93 80c0 39 -21 58 -84 90c-81 41 -118 71 -118 133
c0 83 65 135 152 135c51 0 95 -15 131 -35z" />
    <glyph glyph-name="t" unicode="t" horiz-adv-x="315" 
d="M305 419h-118l-44 -281c-1 -7 -4 -34 -4 -42c0 -32 19 -49 56 -49c18 0 35 3 48 6v-54c-15 -4 -39 -7 -65 -7c-64 0 -105 26 -105 91c0 12 3 39 5 51l45 285h-71l9 54h71l25 164l66 11l-27 -175h109v-54z" />
    <glyph glyph-name="u" unicode="u" horiz-adv-x="488" 
d="M450 473l-54 -340l-3 -133h-56l-3 105c-60 -67 -119 -115 -177 -115c-70 0 -110 37 -110 103c0 10 1 28 3 39l54 341h64l-52 -330c-2 -10 -4 -24 -4 -32c0 -40 19 -63 59 -63c43 0 99 46 169 128l46 297h64z" />
    <glyph glyph-name="v" unicode="v" horiz-adv-x="438" 
d="M447 473l-239 -477h-55l-89 471l64 12l66 -397l186 391h67z" />
    <glyph glyph-name="w" unicode="w" horiz-adv-x="690" 
d="M697 473l-228 -476h-50l-52 382l-171 -382h-50l-78 472l62 12l55 -388l170 382h55l50 -382l173 380h64z" />
    <glyph glyph-name="x" unicode="x" horiz-adv-x="440" 
d="M436 473l-182 -230l118 -238l-63 -12l-95 201l-147 -194h-72l193 245l-109 223l63 13l85 -187l137 179h72z" />
    <glyph glyph-name="y" unicode="y" horiz-adv-x="447" 
d="M457 473l-271 -539c-43 -86 -85 -114 -152 -114c-9 0 -20 2 -28 3v57c11 -2 21 -4 36 -4c36 0 61 20 85 65l33 62l-96 464l64 12l75 -399l187 393h67z" />
    <glyph glyph-name="z" unicode="z" horiz-adv-x="427" 
d="M414 473l-9 -49l-319 -371h262v-53h-347l8 50l320 370h-240v53h325z" />
    <glyph glyph-name="braceleft" unicode="{" horiz-adv-x="457" 
d="M472 690l-7 -50h-84c-71 0 -98 -39 -99 -101c-1 -23 -1 -72 -1 -93c-3 -105 -53 -139 -128 -154v-2c55 -12 86 -38 86 -92c0 -57 -42 -146 -42 -196c0 -37 27 -57 76 -57h77v-50h-91c-75 0 -122 30 -122 100c0 56 40 141 40 198c0 51 -29 75 -98 75h-25v49h35
c79 0 126 33 129 132c0 20 2 70 2 92c2 98 54 149 165 149h87z" />
    <glyph glyph-name="bar" unicode="|" horiz-adv-x="266" 
d="M163 -179l-60 -10v902l60 10v-902z" />
    <glyph glyph-name="braceright" unicode="}" horiz-adv-x="457" 
d="M420 268h-34c-80 0 -127 -32 -129 -131c-1 -21 -2 -71 -2 -93c-2 -98 -55 -149 -165 -149h-87l8 50h83c70 0 97 38 99 101c0 23 1 71 1 93c2 104 53 139 127 155v2c-55 11 -84 38 -84 91c0 56 40 146 40 196c0 37 -26 57 -76 57h-77v50h91c75 0 123 -30 123 -100
c0 -56 -40 -141 -40 -198c0 -51 28 -75 97 -75h25v-49z" />
    <glyph glyph-name="asciitilde" unicode="~" horiz-adv-x="403" 
d="M365 329c-22 -68 -55 -103 -95 -103c-26 0 -42 8 -70 25c-34 21 -44 26 -60 26c-15 0 -29 -15 -44 -53l-44 9c22 68 56 104 95 104c27 0 43 -9 70 -26c34 -20 44 -26 60 -26c15 0 30 16 44 54z" />
    <glyph glyph-name="exclamdown" unicode="&#xa1;" horiz-adv-x="262" 
d="M242 690l-16 -98h-77l16 98h77zM195 500l-61 -500h-80l95 490z" />
    <glyph glyph-name="cent" unicode="&#xa2;" horiz-adv-x="453" 
d="M363 571c34 -9 62 -25 83 -43l-19 -55c-24 22 -52 38 -82 46c0 1 -115 -368 -116 -368c9 -1 17 -2 26 -2c47 0 93 17 137 45v-55c-39 -24 -86 -43 -143 -43c-12 0 -23 1 -35 3l-34 -109l-48 11l36 112c-64 27 -109 91 -109 181c0 151 104 285 246 285h10l33 106l48 -10
s-33 -103 -33 -104zM299 526h-2c-105 0 -175 -111 -175 -228c0 -66 25 -109 63 -132c1 0 114 360 114 360z" />
    <glyph glyph-name="sterling" unicode="&#xa3;" horiz-adv-x="523" 
d="M169 361l75 177c42 99 89 151 184 151c38 0 70 -8 95 -17l-14 -58c-29 11 -54 17 -87 17c-57 0 -91 -38 -119 -105l-70 -165h178v-56h-201l-105 -249h351v-56h-427l8 50l108 255h-83l9 56h98z" />
    <glyph glyph-name="fraction" unicode="&#x2044;" horiz-adv-x="440" 
d="M603 771l-678 -879l-59 13l679 879z" />
    <glyph glyph-name="yen" unicode="&#xa5;" horiz-adv-x="579" 
d="M321 243l-14 -91h162l-8 -52h-162l-16 -100h-60l15 100c1 0 -160 0 -160 0v52s169 0 168 0l14 91h-164l9 51h154l-158 373l64 16l141 -348l243 341h72l-282 -382h148v-51h-166z" />
    <glyph glyph-name="florin" unicode="&#x192;" horiz-adv-x="360" 
d="M347 623c-13 2 -27 3 -43 3c-42 0 -69 -21 -78 -75l-16 -98h94v-55h-103l-63 -398h-65l64 398h-70l9 55h70l17 104c13 89 62 127 143 127c19 0 32 -1 41 -3v-58z" />
    <glyph glyph-name="section" unicode="&#xa7;" horiz-adv-x="515" 
d="M482 362c0 -42 -21 -79 -42 -103l-53 15c17 21 33 50 33 80c0 27 -15 46 -81 66l-67 20c-78 23 -123 52 -123 119c0 74 65 125 163 125c60 0 112 -15 157 -35l-18 -55c-47 24 -92 38 -146 38c-60 0 -95 -30 -95 -68c0 -37 28 -54 87 -72l64 -19c80 -25 121 -54 121 -111z
M66 314c0 42 21 79 41 103l54 -15c-17 -21 -34 -50 -34 -80c0 -27 16 -47 82 -66l67 -20c78 -23 123 -52 123 -119c0 -74 -66 -125 -163 -125c-61 0 -113 15 -157 35l18 55c46 -24 92 -38 146 -38c59 0 95 30 95 68c0 37 -28 54 -88 72l-63 19c-81 25 -121 54 -121 111z" />
    <glyph glyph-name="currency" unicode="&#xa4;" horiz-adv-x="577" 
d="M207 404c-10 -37 -15 -77 -16 -117h241l-9 -51h-230c11 -126 73 -193 163 -193c50 0 93 14 153 55v-61c-48 -31 -104 -50 -159 -50c-128 0 -210 93 -222 249c1 0 -93 0 -93 0v51h92c1 40 6 79 15 117c1 0 -87 0 -87 0l9 52h94c47 133 146 233 271 233
c70 0 121 -22 162 -58l-15 -62c-48 42 -90 64 -151 64c-89 0 -162 -75 -201 -177h228v-52h-245z" />
    <glyph glyph-name="quotesingle" unicode="'" horiz-adv-x="214" 
d="M217 676l-51 -185l-36 9l7 176h80z" />
    <glyph glyph-name="quotedblleft" unicode="&#x201c;" horiz-adv-x="379" 
d="M87 473l113 223l35 -9l-68 -214h-80zM252 473l113 223l35 -9l-68 -214h-80z" />
    <glyph glyph-name="guillemotleft" unicode="&#xab;" horiz-adv-x="514" 
d="M499 473l-183 -241l104 -225l-52 -12l-126 242l198 236h59zM297 473l-183 -241l104 -225l-52 -12l-127 242l199 236h59z" />
    <glyph glyph-name="guilsinglleft" unicode="&#x2039;" horiz-adv-x="312" 
d="M297 473l-183 -241l104 -225l-52 -12l-127 242l199 236h59z" />
    <glyph glyph-name="guilsinglright" unicode="&#x203a;" horiz-adv-x="312" 
d="M14 0l184 241l-105 226l54 11l125 -242l-198 -236h-60z" />
    <glyph glyph-name="fi" unicode="&#xfb01;" horiz-adv-x="504" 
d="M333 655c-10 2 -26 4 -44 4c-44 0 -68 -24 -75 -69l-19 -117h95v-54h-103l-93 -591l-66 -11l95 602h-70l8 54h71l20 126c13 82 60 116 138 116c18 0 33 -1 43 -3v-57zM502 635c0 -25 -21 -46 -47 -46c-25 0 -46 21 -46 46c0 26 21 47 46 47c26 0 47 -21 47 -47zM461 473
l-75 -473h-64l75 473h64z" />
    <glyph glyph-name="fl" unicode="&#xfb02;" horiz-adv-x="504" 
d="M333 655c-10 2 -26 4 -44 4c-44 0 -68 -24 -75 -69l-19 -117h95v-54h-103l-93 -591l-66 -11l95 602h-70l8 54h71l20 126c13 82 60 116 138 116c18 0 33 -1 43 -3v-57zM499 718l-113 -718h-64l111 706z" />
    <glyph glyph-name="endash" unicode="&#x2013;" 
d="M399 251h-338l10 64h338z" />
    <glyph glyph-name="dagger" unicode="&#x2020;" horiz-adv-x="498" 
d="M334 587l-37 -114h-22v111l16 106h59zM475 414h-50l-113 18l2 21l120 19h50zM248 432l-119 -18h-50l9 58h50l113 -19zM239 -1l-36 -115h-19v115l49 311l33 103h22v-103z" />
    <glyph glyph-name="daggerdbl" unicode="&#x2021;" horiz-adv-x="517" 
d="M343 587l-36 -114h-22v112l16 105h58zM484 414h-50l-113 18l3 21l120 19h49zM257 432l-119 -18h-50l9 58h50l114 -19zM279 196l-32 -103h-23v100l18 117l33 103h23v-100zM424 34h-50l-114 18l4 21l120 19h49zM197 52l-119 -18h-50l9 58h50l114 -19zM221 -185h-59l16 103
l37 114h21v-111z" />
    <glyph glyph-name="periodcentered" unicode="&#xb7;" horiz-adv-x="214" 
d="M146 234h-78l15 98h78z" />
    <glyph glyph-name="paragraph" unicode="&#xb6;" horiz-adv-x="512" 
d="M387 0h-57l99 627h-83l-23 -144l-59 -183c-111 6 -186 58 -186 164c0 123 92 212 255 212h161z" />
    <glyph glyph-name="bullet" unicode="&#x2022;" horiz-adv-x="404" 
d="M336 348l-17 -109l-100 -17l-99 17l-17 109l17 109l99 16l100 -16z" />
    <glyph glyph-name="quotesinglbase" unicode="&#x201a;" horiz-adv-x="214" 
d="M137 98l-113 -222l-35 8l68 214h80z" />
    <glyph glyph-name="quotedblbase" unicode="&#x201e;" horiz-adv-x="379" 
d="M137 98l-113 -222l-35 8l68 214h80zM302 98l-113 -222l-35 8l68 214h80z" />
    <glyph glyph-name="quotedblright" unicode="&#x201d;" horiz-adv-x="379" 
d="M236 690l-113 -223l-35 9l68 214h80zM401 690l-113 -223l-35 9l68 214h80z" />
    <glyph glyph-name="guillemotright" unicode="&#xbb;" horiz-adv-x="514" 
d="M217 0l183 241l-105 226l53 11l126 -242l-198 -236h-59zM14 0l184 241l-105 226l54 11l125 -242l-198 -236h-60z" />
    <glyph glyph-name="ellipsis" unicode="&#x2026;" horiz-adv-x="693" 
d="M579 0h-78l16 98h78zM348 0h-78l16 98h78zM117 0h-78l16 98h78z" />
    <glyph glyph-name="perthousand" unicode="&#x2030;" horiz-adv-x="806" 
d="M764 345c0 -210 -138 -358 -345 -358c-206 0 -345 147 -345 358c0 210 139 358 345 358c207 0 345 -147 345 -358zM729 345c0 200 -127 329 -310 329c-185 0 -309 -129 -309 -329s127 -329 310 -329c185 0 309 129 309 329zM461 323l122 -161l-57 -11l-120 164h-49v-161
h-53v394h109c80 0 133 -44 133 -115c0 -58 -36 -95 -85 -110zM412 500h-55v-139h50c52 0 85 25 85 71c0 42 -28 68 -80 68z" />
    <glyph glyph-name="questiondown" unicode="&#xbf;" horiz-adv-x="459" 
d="M303 333l-24 -10c-128 -51 -179 -98 -179 -176c0 -64 45 -100 113 -100c61 0 117 23 181 65v-66c-56 -36 -112 -59 -190 -59c-108 0 -173 61 -173 153c0 110 69 168 213 230l29 120l46 10zM272 592l16 98h77l-15 -98h-78z" />
    <glyph glyph-name="grave" unicode="`" 
d="M360 550h-44l-116 134l86 19z" />
    <glyph glyph-name="acute" unicode="&#xb4;" 
d="M399 684l-155 -134h-54l119 153z" />
    <glyph glyph-name="circumflex" unicode="&#x2c6;" 
d="M408 554l-34 -7l-82 86l-106 -83h-44l128 145h61z" />
    <glyph glyph-name="tilde" unicode="&#x2dc;" 
d="M444 660c-22 -69 -56 -104 -95 -104c-26 0 -42 9 -70 25c-34 21 -44 26 -60 26c-15 0 -29 -14 -44 -53l-44 9c22 69 56 104 95 104c27 0 43 -9 70 -25c34 -21 44 -26 60 -26c15 0 30 15 44 53z" />
    <glyph glyph-name="macron" unicode="&#xaf;" 
d="M406 578h-247l8 61h247z" />
    <glyph glyph-name="breve" unicode="&#x2d8;" 
d="M427 695c-13 -92 -67 -144 -145 -144c-79 0 -120 57 -107 137l51 10c1 -54 19 -84 68 -84c39 0 70 29 83 81h50z" />
    <glyph glyph-name="dotaccent" unicode="&#x2d9;" 
d="M321 554h-85l15 90h84z" />
    <glyph glyph-name="dieresis" unicode="&#xa8;" 
d="M407 557h-83l14 88h83zM234 557h-82l14 88h83z" />
    <glyph glyph-name="ring" unicode="&#x2da;" 
d="M388 644c0 -56 -41 -96 -97 -96c-57 0 -98 40 -98 96c0 55 41 99 98 99c56 0 97 -44 97 -99zM348 644c0 35 -25 61 -57 61c-33 0 -58 -26 -58 -61c0 -34 25 -59 58 -59c32 0 57 25 57 59z" />
    <glyph glyph-name="cedilla" unicode="&#xb8;" 
d="M249 -70l-140 -115h-49l106 135z" />
    <glyph glyph-name="hungarumlaut" unicode="&#x2dd;" 
d="M467 688l-154 -134h-45l120 152zM304 688l-155 -134h-44l119 152z" />
    <glyph glyph-name="ogonek" unicode="&#x2db;" 
d="M260 -185h-42l-104 115l85 20z" />
    <glyph glyph-name="caron" unicode="&#x2c7;" 
d="M434 695l-127 -145h-61l-77 140l35 8l82 -87l104 84h44z" />
    <glyph glyph-name="emdash" unicode="&#x2014;" horiz-adv-x="912" 
d="M855 252h-794l10 63h794z" />
    <glyph glyph-name="AE" unicode="&#xc6;" horiz-adv-x="853" 
d="M867 690l-10 -59h-270l-37 -240h210v-60h-220l-43 -272h279l-9 -59h-347l36 223h-244l-166 -223h-73l514 690h380zM522 641l-265 -358h209z" />
    <glyph glyph-name="ordfeminine" unicode="&#xaa;" horiz-adv-x="367" 
d="M311 235h-255l7 47h248v-47zM283 450l12 74c-124 -10 -160 -45 -160 -90c0 -25 16 -40 43 -40c28 0 60 17 105 56zM301 560l3 14c7 44 -11 64 -54 64c-32 0 -64 -8 -109 -29v45c36 15 75 26 115 26c80 0 109 -41 98 -108l-24 -136l-2 -77h-43l-2 48
c-36 -30 -74 -54 -114 -54c-49 0 -86 29 -86 78c0 65 49 117 218 129z" />
    <glyph glyph-name="Lslash" unicode="&#x141;" horiz-adv-x="470" 
d="M407 0h-334l51 324l-80 -17l-1 59l91 19l48 305h67l-45 -291l165 35l-9 -61l-166 -35l-44 -277h257v-61z" />
    <glyph glyph-name="Oslash" unicode="&#xd8;" horiz-adv-x="690" 
d="M566 535l-380 -427c34 -40 82 -63 142 -63c146 0 263 156 263 359c0 50 -9 95 -25 131zM157 153c0 0 380 428 380 427c-34 42 -83 65 -144 65c-145 0 -262 -155 -262 -359c0 -51 9 -96 26 -133zM109 101c-31 50 -47 114 -47 185c0 232 149 417 334 417
c78 0 140 -27 185 -73l60 68l60 -13l-88 -97c31 -50 47 -114 47 -184c0 -232 -149 -417 -334 -417c-78 0 -140 27 -184 72l-60 -67l-60 13z" />
    <glyph glyph-name="OE" unicode="&#x152;" horiz-adv-x="844" 
d="M867 690l-9 -59h-270l-37 -240h210v-60h-220l-43 -272h279l-10 -59h-411c-188 0 -292 108 -292 284c0 242 164 406 392 406h411zM522 631h-73c-187 0 -314 -138 -314 -343c0 -144 76 -229 229 -229h67z" />
    <glyph glyph-name="ordmasculine" unicode="&#xba;" horiz-adv-x="376" 
d="M210 353c-74 0 -120 50 -120 134c0 102 67 193 162 193c74 0 121 -49 121 -133c0 -103 -68 -194 -163 -194zM322 235h-265l8 47h257v-47zM249 637c-66 0 -107 -75 -107 -148c0 -66 33 -92 72 -92c66 0 107 74 107 147c0 67 -34 93 -72 93z" />
    <glyph glyph-name="ae" unicode="&#xe6;" horiz-adv-x="723" 
d="M392 284h227c7 92 -20 148 -87 148c-57 0 -116 -57 -140 -148zM321 252c-182 -16 -234 -72 -234 -137c0 -46 28 -70 74 -70s100 31 161 83c-4 18 -6 38 -6 59c0 23 2 45 5 65zM330 299l4 26c11 72 -15 103 -79 103c-45 0 -92 -15 -147 -42v59c47 21 99 38 154 38
c76 0 117 -28 130 -77c39 49 90 77 143 77c96 0 150 -64 150 -176c0 -23 -3 -49 -7 -72h-295c-1 -13 -2 -27 -2 -42c0 -95 44 -148 119 -148c52 0 94 20 150 60v-61c-50 -35 -99 -54 -159 -54c-72 0 -125 32 -153 90c-60 -52 -128 -89 -190 -89c-72 0 -126 40 -126 119
c0 94 70 171 308 189z" />
    <glyph glyph-name="dotlessi" unicode="&#x131;" horiz-adv-x="224" 
d="M182 473l-76 -473h-64l76 473h64z" />
    <glyph glyph-name="lslash" unicode="&#x142;" horiz-adv-x="271" 
d="M186 353l-56 -353h-64l54 339l-82 -17l-1 58l92 19l48 307l67 12l-47 -306l88 19l-10 -59z" />
    <glyph glyph-name="oslash" unicode="&#xf8;" horiz-adv-x="477" 
d="M365 349l-230 -271c20 -26 47 -37 79 -37c96 0 160 121 160 237c0 28 -3 51 -9 71zM112 125l231 269c-19 26 -48 37 -79 37c-96 0 -160 -120 -160 -234c0 -28 3 -52 8 -72zM66 73c-16 31 -25 71 -25 118c0 154 94 292 226 292c47 0 86 -15 115 -43l36 41l53 -12l-60 -69
c17 -31 26 -71 26 -118c0 -154 -94 -292 -227 -292c-47 0 -86 15 -115 43l-35 -40l-53 12z" />
    <glyph glyph-name="oe" unicode="&#x153;" horiz-adv-x="772" 
d="M441 284h227c8 92 -20 148 -87 148c-57 0 -115 -56 -140 -148zM372 283c0 105 -52 147 -109 147c-96 0 -158 -121 -158 -239c0 -105 52 -148 110 -148c95 0 157 121 157 240zM384 98c-39 -65 -100 -108 -174 -108c-104 0 -169 74 -169 201c0 154 93 292 225 292
c76 0 129 -39 152 -108c41 68 103 108 166 108c97 0 151 -64 151 -176c0 -23 -3 -49 -7 -72h-296c-1 -14 -2 -29 -2 -44c0 -92 44 -146 120 -146c52 0 93 20 149 60v-61c-49 -35 -99 -54 -158 -54c-80 0 -134 39 -157 108z" />
    <glyph glyph-name="germandbls" unicode="&#xdf;" horiz-adv-x="568" 
d="M522 159c0 -106 -77 -168 -180 -168c-51 0 -96 14 -139 37l16 56c43 -25 85 -39 129 -39c65 0 110 42 110 107c0 72 -57 117 -186 150v46c86 90 126 151 126 226c0 52 -31 85 -81 85c-63 0 -101 -49 -113 -127l-110 -704l-66 -11l95 602h-70l8 54h71l10 67
c17 109 83 175 182 175c87 0 140 -54 140 -134c0 -95 -50 -161 -129 -241c118 -33 187 -90 187 -181z" />
    <glyph glyph-name="NUL" horiz-adv-x="0" 
 />
    <glyph glyph-name="Eth" unicode="&#xd0;" horiz-adv-x="669" 
d="M639 406c0 -123 -43 -226 -115 -298c-69 -69 -165 -108 -277 -108h-173l53 331h-78v61h87l48 298h162c189 0 293 -108 293 -284zM568 402c0 144 -77 229 -229 229h-97l-38 -239h171l-9 -61h-172l-44 -272h104c88 0 163 31 217 85c61 60 97 150 97 258z" />
    <glyph glyph-name="eth" unicode="&#xf0;" horiz-adv-x="493" 
d="M387 310c-42 54 -81 84 -139 84c-81 0 -142 -99 -142 -215c0 -90 41 -137 104 -137c86 0 158 117 177 268zM338 574l-49 -63h-56l73 96c-27 22 -61 40 -101 55l12 57c48 -17 89 -39 123 -67l50 66l50 -12l-66 -85c52 -57 80 -134 80 -235c0 -141 -44 -265 -117 -338
c-35 -35 -80 -58 -133 -58c-90 0 -163 65 -163 191c0 145 93 266 209 266c61 0 104 -29 142 -71v12c0 82 -19 141 -54 186z" />
    <glyph glyph-name="Scaron" unicode="&#x160;" horiz-adv-x="490" 
d="M471 656l-16 -66c-42 29 -92 51 -149 51c-86 0 -132 -57 -132 -121c0 -51 31 -84 114 -133c111 -66 148 -116 148 -196c0 -125 -100 -200 -221 -200c-75 0 -147 26 -190 55l16 66c49 -36 113 -63 178 -63c84 0 148 53 148 133c0 59 -24 90 -108 140
c-109 65 -152 108 -152 190c0 106 82 187 205 187c66 0 121 -20 159 -43zM474 896l-127 -145h-61l-77 140l35 8l82 -87l104 84h44z" />
    <glyph glyph-name="scaron" unicode="&#x161;" horiz-adv-x="381" 
d="M350 448l-16 -62c-37 25 -77 42 -121 42c-52 0 -85 -32 -85 -70c0 -35 20 -52 77 -80c91 -46 126 -77 126 -144c0 -95 -71 -144 -163 -144c-63 0 -121 23 -160 51l17 60c40 -31 92 -56 151 -56c51 0 93 32 93 80c0 39 -21 58 -84 90c-81 41 -118 71 -118 133
c0 83 65 135 152 135c51 0 95 -15 131 -35zM393 695l-127 -145h-61l-77 140l35 8l82 -87l104 84h44z" />
    <glyph glyph-name="Yacute" unicode="&#xdd;" horiz-adv-x="589" 
d="M634 690l-298 -403l-45 -287h-67l45 286l-168 397l69 14l142 -350l246 343h76zM535 857l-155 -134h-54l119 153z" />
    <glyph glyph-name="yacute" unicode="&#xfd;" horiz-adv-x="447" 
d="M457 473l-271 -539c-43 -86 -85 -114 -152 -114c-9 0 -20 2 -28 3v57c11 -2 21 -4 36 -4c36 0 61 20 85 65l33 62l-96 464l64 12l75 -399l187 393h67zM443 675l-155 -134h-54l119 153z" />
    <glyph glyph-name="Thorn" unicode="&#xde;" horiz-adv-x="507" 
d="M482 374c0 -131 -101 -220 -264 -220h-77l-24 -154h-68l110 690h67l-21 -138h62c138 0 215 -62 215 -178zM415 367c0 81 -49 127 -150 127h-70l-45 -280h80c124 0 185 68 185 153z" />
    <glyph glyph-name="thorn" unicode="&#xfe;" horiz-adv-x="490" 
d="M452 309c0 -189 -119 -315 -261 -315c-35 0 -64 7 -88 14l-29 -180l-65 -11l141 889l65 12l-51 -320c46 49 91 85 151 85c83 0 137 -62 137 -174zM386 301c0 79 -31 126 -84 126c-44 0 -87 -35 -149 -103l-41 -258c27 -12 53 -18 85 -18c99 0 189 92 189 253z" />
    <glyph glyph-name="Zcaron" unicode="&#x17d;" horiz-adv-x="572" 
d="M586 690l-7 -47l-468 -585h375v-58h-468l7 47l469 585h-349v58h441zM520 886l-127 -145h-61l-77 140l35 8l82 -87l104 84h44z" />
    <glyph glyph-name="zcaron" unicode="&#x17e;" horiz-adv-x="427" 
d="M414 473l-9 -49l-319 -371h262v-53h-347l8 50l320 370h-240v53h325zM420 695l-127 -145h-61l-77 140l35 8l82 -87l104 84h44z" />
    <glyph glyph-name="onehalf" unicode="&#xbd;" horiz-adv-x="500" 
d="M25 -200v1000h450v-1000h-450z" />
    <glyph glyph-name="onequarter" unicode="&#xbc;" horiz-adv-x="500" 
d="M25 -200v1000h450v-1000h-450z" />
    <glyph glyph-name="onesuperior" unicode="&#xb9;" horiz-adv-x="500" 
d="M25 -200v1000h450v-1000h-450z" />
    <glyph glyph-name="threequarters" unicode="&#xbe;" horiz-adv-x="500" 
d="M25 -200v1000h450v-1000h-450z" />
    <glyph glyph-name="threesuperior" unicode="&#xb3;" horiz-adv-x="500" 
d="M25 -200v1000h450v-1000h-450z" />
    <glyph glyph-name="twosuperior" unicode="&#xb2;" horiz-adv-x="500" 
d="M25 -200v1000h450v-1000h-450z" />
    <glyph glyph-name="brokenbar" unicode="&#xa6;" horiz-adv-x="500" 
d="M25 -200v1000h450v-1000h-450z" />
    <glyph glyph-name="minus" unicode="&#x2212;" horiz-adv-x="500" 
d="M25 -200v1000h450v-1000h-450z" />
    <glyph glyph-name="multiply" unicode="&#xd7;" horiz-adv-x="500" 
d="M25 -200v1000h450v-1000h-450z" />
    <glyph glyph-name="Adieresis" unicode="&#xc4;" horiz-adv-x="642" 
d="M574 8l-66 -15l-47 230h-277l-115 -223h-71l368 694h61zM449 282l-66 325l-169 -325h235zM530 749h-83l14 88h83zM357 749h-82l14 88h83z" />
    <glyph glyph-name="Aring" unicode="&#xc5;" horiz-adv-x="642" 
d="M574 8l-66 -15l-47 230h-277l-115 -223h-71l368 694h61zM449 282l-66 325l-169 -325h235zM511 836c0 -56 -41 -96 -97 -96c-57 0 -98 40 -98 96c0 55 41 99 98 99c56 0 97 -44 97 -99zM471 836c0 35 -25 61 -57 61c-33 0 -58 -26 -58 -61c0 -34 25 -59 58 -59
c32 0 57 25 57 59z" />
    <glyph glyph-name="Ccedilla" unicode="&#xc7;" horiz-adv-x="580" 
d="M582 641l-17 -70c-47 44 -101 70 -166 70c-159 0 -268 -168 -268 -356c0 -152 79 -236 191 -236c63 0 123 20 179 60v-68c-54 -34 -114 -53 -183 -53c-149 0 -256 106 -256 293c0 221 142 421 340 421c80 0 137 -24 180 -61zM343 -70l-140 -115h-49l106 135z" />
    <glyph glyph-name="Eacute" unicode="&#xc9;" horiz-adv-x="472" 
d="M496 690l-10 -59h-269l-38 -240h210v-60h-220l-43 -272h279l-9 -59h-347l110 690h337zM484 875l-155 -134h-54l119 153z" />
    <glyph glyph-name="Ntilde" unicode="&#xd1;" horiz-adv-x="658" 
d="M643 690l-110 -690h-41l-288 586l-92 -586h-63l110 690h64l271 -553l87 553h62zM579 842c-22 -69 -56 -104 -95 -104c-26 0 -42 9 -70 25c-34 21 -44 26 -60 26c-15 0 -29 -14 -44 -53l-44 9c22 69 56 104 95 104c27 0 43 -9 70 -25c34 -21 44 -26 60 -26
c15 0 30 15 44 53z" />
    <glyph glyph-name="Odieresis" unicode="&#xd6;" horiz-adv-x="690" 
d="M660 404c0 -232 -149 -417 -337 -417c-167 0 -261 128 -261 299c0 232 149 417 336 417c168 0 262 -128 262 -299zM590 402c0 146 -75 242 -195 242c-147 0 -263 -155 -263 -356c0 -146 75 -242 194 -242c148 0 264 155 264 356zM551 758h-83l14 88h83zM378 758h-82
l14 88h83z" />
    <glyph glyph-name="Udieresis" unicode="&#xdc;" horiz-adv-x="658" 
d="M652 690l-71 -451c-26 -162 -127 -250 -272 -250c-138 0 -229 77 -229 221c0 22 2 50 6 75l64 405h67l-65 -414c-3 -20 -5 -43 -5 -61c0 -104 59 -166 166 -166c115 0 182 74 202 202l70 439h67zM536 739h-83l14 88h83zM363 739h-82l14 88h83z" />
    <glyph glyph-name="aacute" unicode="&#xe1;" horiz-adv-x="484" 
d="M332 97c-61 -64 -114 -107 -170 -107c-75 0 -123 57 -123 159c0 192 124 331 268 331c49 0 91 -11 137 -30l-51 -313l-3 -137h-56zM334 163l40 248c-23 10 -42 14 -75 14c-101 0 -195 -110 -195 -270c0 -71 26 -109 69 -109c42 0 87 38 161 117zM464 684l-155 -134h-54
l119 153z" />
    <glyph glyph-name="agrave" unicode="&#xe0;" horiz-adv-x="484" 
d="M332 97c-61 -64 -114 -107 -170 -107c-75 0 -123 57 -123 159c0 192 124 331 268 331c49 0 91 -11 137 -30l-51 -313l-3 -137h-56zM334 163l40 248c-23 10 -42 14 -75 14c-101 0 -195 -110 -195 -270c0 -71 26 -109 69 -109c42 0 87 38 161 117zM330 550h-44l-116 134
l86 19z" />
    <glyph glyph-name="acircumflex" unicode="&#xe2;" horiz-adv-x="484" 
d="M332 97c-61 -64 -114 -107 -170 -107c-75 0 -123 57 -123 159c0 192 124 331 268 331c49 0 91 -11 137 -30l-51 -313l-3 -137h-56zM334 163l40 248c-23 10 -42 14 -75 14c-101 0 -195 -110 -195 -270c0 -71 26 -109 69 -109c42 0 87 38 161 117zM428 554l-34 -7l-82 86
l-106 -83h-44l128 145h61z" />
    <glyph glyph-name="adieresis" unicode="&#xe4;" horiz-adv-x="484" 
d="M332 97c-61 -64 -114 -107 -170 -107c-75 0 -123 57 -123 159c0 192 124 331 268 331c49 0 91 -11 137 -30l-51 -313l-3 -137h-56zM334 163l40 248c-23 10 -42 14 -75 14c-101 0 -195 -110 -195 -270c0 -71 26 -109 69 -109c42 0 87 38 161 117zM427 557h-83l14 88h83z
M254 557h-82l14 88h83z" />
    <glyph glyph-name="atilde" unicode="&#xe3;" horiz-adv-x="484" 
d="M332 97c-61 -64 -114 -107 -170 -107c-75 0 -123 57 -123 159c0 192 124 331 268 331c49 0 91 -11 137 -30l-51 -313l-3 -137h-56zM334 163l40 248c-23 10 -42 14 -75 14c-101 0 -195 -110 -195 -270c0 -71 26 -109 69 -109c42 0 87 38 161 117zM464 660
c-22 -69 -56 -104 -95 -104c-26 0 -42 9 -70 25c-34 21 -44 26 -60 26c-15 0 -29 -14 -44 -53l-44 9c22 69 56 104 95 104c27 0 43 -9 70 -25c34 -21 44 -26 60 -26c15 0 30 15 44 53z" />
    <glyph glyph-name="aring" unicode="&#xe5;" horiz-adv-x="484" 
d="M332 97c-61 -64 -114 -107 -170 -107c-75 0 -123 57 -123 159c0 192 124 331 268 331c49 0 91 -11 137 -30l-51 -313l-3 -137h-56zM334 163l40 248c-23 10 -42 14 -75 14c-101 0 -195 -110 -195 -270c0 -71 26 -109 69 -109c42 0 87 38 161 117zM408 644
c0 -56 -41 -96 -97 -96c-57 0 -98 40 -98 96c0 55 41 99 98 99c56 0 97 -44 97 -99zM368 644c0 35 -25 61 -57 61c-33 0 -58 -26 -58 -61c0 -34 25 -59 58 -59c32 0 57 25 57 59z" />
    <glyph glyph-name="ccedilla" unicode="&#xe7;" horiz-adv-x="414" 
d="M403 443l-17 -63c-36 29 -69 47 -115 47c-90 0 -166 -110 -166 -234c0 -94 49 -147 124 -147c40 0 74 14 119 45v-60c-38 -26 -80 -41 -126 -41c-107 0 -181 73 -181 199c0 158 100 294 234 294c56 0 95 -17 128 -40zM252 -70l-140 -115h-49l106 135z" />
    <glyph glyph-name="eacute" unicode="&#xe9;" horiz-adv-x="447" 
d="M444 684l-155 -134h-54l119 153zM116 284h227c7 92 -20 148 -87 148c-57 0 -116 -56 -140 -148zM107 235c-1 -14 -2 -29 -2 -44c0 -92 44 -146 119 -146c52 0 94 20 150 60v-61c-50 -35 -99 -54 -159 -54c-108 0 -175 73 -175 197c0 179 109 296 219 296
c96 0 150 -64 150 -176c0 -23 -3 -49 -7 -72h-295z" />
    <glyph glyph-name="egrave" unicode="&#xe8;" horiz-adv-x="447" 
d="M307 550h-44l-116 134l86 19zM116 284h227c7 92 -20 148 -87 148c-57 0 -116 -56 -140 -148zM107 235c-1 -14 -2 -29 -2 -44c0 -92 44 -146 119 -146c52 0 94 20 150 60v-61c-50 -35 -99 -54 -159 -54c-108 0 -175 73 -175 197c0 179 109 296 219 296
c96 0 150 -64 150 -176c0 -23 -3 -49 -7 -72h-295z" />
    <glyph glyph-name="ecircumflex" unicode="&#xea;" horiz-adv-x="447" 
d="M410 554l-34 -7l-82 86l-106 -83h-44l128 145h61zM116 284h227c7 92 -20 148 -87 148c-57 0 -116 -56 -140 -148zM107 235c-1 -14 -2 -29 -2 -44c0 -92 44 -146 119 -146c52 0 94 20 150 60v-61c-50 -35 -99 -54 -159 -54c-108 0 -175 73 -175 197c0 179 109 296 219 296
c96 0 150 -64 150 -176c0 -23 -3 -49 -7 -72h-295z" />
    <glyph glyph-name="edieresis" unicode="&#xeb;" horiz-adv-x="447" 
d="M409 557h-83l14 88h83zM236 557h-82l14 88h83zM116 284h227c7 92 -20 148 -87 148c-57 0 -116 -56 -140 -148zM107 235c-1 -14 -2 -29 -2 -44c0 -92 44 -146 119 -146c52 0 94 20 150 60v-61c-50 -35 -99 -54 -159 -54c-108 0 -175 73 -175 197c0 179 109 296 219 296
c96 0 150 -64 150 -176c0 -23 -3 -49 -7 -72h-295z" />
    <glyph glyph-name="iacute" unicode="&#xed;" horiz-adv-x="224" 
d="M319 684l-133 -134h-48l103 153zM182 473l-76 -473h-64l76 473h64z" />
    <glyph glyph-name="igrave" unicode="&#xec;" horiz-adv-x="224" 
d="M180 550h-40l-98 134l75 19zM182 473l-76 -473h-64l76 473h64z" />
    <glyph glyph-name="icircumflex" unicode="&#xee;" horiz-adv-x="224" 
d="M279 554l-30 -7l-73 85l-96 -82h-40l118 145h54zM182 473l-76 -473h-64l76 473h64z" />
    <glyph glyph-name="idieresis" unicode="&#xef;" horiz-adv-x="224" 
d="M279 557h-77l15 88h76zM125 557h-76l14 88h76zM182 473l-76 -473h-64l76 473h64z" />
    <glyph glyph-name="ntilde" unicode="&#xf1;" horiz-adv-x="488" 
d="M441 380c0 -9 -1 -28 -3 -39l-54 -341h-64l52 330c2 11 3 24 3 32c0 40 -18 63 -58 63c-43 0 -99 -46 -169 -128l-46 -297h-64l54 340l3 133h56l2 -105c61 67 120 115 178 115c70 0 110 -37 110 -103zM460 660c-22 -69 -56 -104 -95 -104c-26 0 -42 9 -70 25
c-34 21 -44 26 -60 26c-15 0 -29 -14 -44 -53l-44 9c22 69 56 104 95 104c27 0 43 -9 70 -25c34 -21 44 -26 60 -26c15 0 30 15 44 53z" />
    <glyph glyph-name="oacute" unicode="&#xf3;" horiz-adv-x="477" 
d="M466 684l-155 -134h-54l119 153zM437 282c0 -154 -94 -292 -227 -292c-105 0 -169 74 -169 201c0 154 94 292 226 292c105 0 170 -74 170 -201zM372 280c0 107 -50 150 -109 150c-94 0 -158 -120 -158 -236c0 -108 50 -151 110 -151c94 0 157 120 157 237z" />
    <glyph glyph-name="ograve" unicode="&#xf2;" horiz-adv-x="477" 
d="M437 282c0 -154 -94 -292 -227 -292c-105 0 -169 74 -169 201c0 154 94 292 226 292c105 0 170 -74 170 -201zM372 280c0 107 -50 150 -109 150c-94 0 -158 -120 -158 -236c0 -108 50 -151 110 -151c94 0 157 120 157 237zM313 550h-44l-116 134l86 19z" />
    <glyph glyph-name="ocircumflex" unicode="&#xf4;" horiz-adv-x="477" 
d="M437 282c0 -154 -94 -292 -227 -292c-105 0 -169 74 -169 201c0 154 94 292 226 292c105 0 170 -74 170 -201zM372 280c0 107 -50 150 -109 150c-94 0 -158 -120 -158 -236c0 -108 50 -151 110 -151c94 0 157 120 157 237zM418 554l-34 -7l-82 86l-106 -83h-44l128 145
h61z" />
    <glyph glyph-name="odieresis" unicode="&#xf6;" horiz-adv-x="477" 
d="M437 282c0 -154 -94 -292 -227 -292c-105 0 -169 74 -169 201c0 154 94 292 226 292c105 0 170 -74 170 -201zM372 280c0 107 -50 150 -109 150c-94 0 -158 -120 -158 -236c0 -108 50 -151 110 -151c94 0 157 120 157 237zM417 557h-83l14 88h83zM244 557h-82l14 88h83z
" />
    <glyph glyph-name="otilde" unicode="&#xf5;" horiz-adv-x="477" 
d="M437 282c0 -154 -94 -292 -227 -292c-105 0 -169 74 -169 201c0 154 94 292 226 292c105 0 170 -74 170 -201zM372 280c0 107 -50 150 -109 150c-94 0 -158 -120 -158 -236c0 -108 50 -151 110 -151c94 0 157 120 157 237zM455 660c-22 -69 -56 -104 -95 -104
c-26 0 -42 9 -70 25c-34 21 -44 26 -60 26c-15 0 -29 -14 -44 -53l-44 9c22 69 56 104 95 104c27 0 43 -9 70 -25c34 -21 44 -26 60 -26c15 0 30 15 44 53z" />
    <glyph glyph-name="uacute" unicode="&#xfa;" horiz-adv-x="488" 
d="M450 473l-54 -340l-3 -133h-56l-3 105c-60 -67 -119 -115 -177 -115c-70 0 -110 37 -110 103c0 10 1 28 3 39l54 341h64l-52 -330c-2 -10 -4 -24 -4 -32c0 -40 19 -63 59 -63c43 0 99 46 169 128l46 297h64zM458 684l-155 -134h-54l119 153z" />
    <glyph glyph-name="ugrave" unicode="&#xf9;" horiz-adv-x="488" 
d="M450 473l-54 -340l-3 -133h-56l-3 105c-60 -67 -119 -115 -177 -115c-70 0 -110 37 -110 103c0 10 1 28 3 39l54 341h64l-52 -330c-2 -10 -4 -24 -4 -32c0 -40 19 -63 59 -63c43 0 99 46 169 128l46 297h64zM318 550h-44l-116 134l86 19z" />
    <glyph glyph-name="ucircumflex" unicode="&#xfb;" horiz-adv-x="488" 
d="M450 473l-54 -340l-3 -133h-56l-3 105c-60 -67 -119 -115 -177 -115c-70 0 -110 37 -110 103c0 10 1 28 3 39l54 341h64l-52 -330c-2 -10 -4 -24 -4 -32c0 -40 19 -63 59 -63c43 0 99 46 169 128l46 297h64zM423 554l-34 -7l-82 86l-106 -83h-44l128 145h61z" />
    <glyph glyph-name="udieresis" unicode="&#xfc;" horiz-adv-x="488" 
d="M450 473l-54 -340l-3 -133h-56l-3 105c-60 -67 -119 -115 -177 -115c-70 0 -110 37 -110 103c0 10 1 28 3 39l54 341h64l-52 -330c-2 -10 -4 -24 -4 -32c0 -40 19 -63 59 -63c43 0 99 46 169 128l46 297h64zM423 557h-83l14 88h83zM250 557h-82l14 88h83z" />
    <glyph glyph-name="degree" unicode="&#xb0;" horiz-adv-x="423" 
d="M416 523c0 -92 -68 -158 -159 -158c-90 0 -159 66 -159 158c0 91 69 158 159 158c91 0 159 -67 159 -158zM363 523c0 62 -45 111 -107 111c-61 0 -105 -49 -105 -111c0 -63 45 -111 107 -111c61 0 105 48 105 111z" />
    <glyph glyph-name="registered" unicode="&#xae;" horiz-adv-x="566" 
d="M546 467c0 -136 -93 -232 -226 -232c-135 0 -227 96 -227 233c0 136 93 232 227 232s226 -96 226 -233zM520 467c0 127 -85 210 -200 210c-117 0 -200 -83 -200 -209c0 -127 84 -210 200 -210s200 83 200 209zM427 353l-39 -9l-78 110h-27v-107h-37v258h70
c54 0 89 -28 89 -75c0 -38 -23 -62 -55 -71zM368 528c0 28 -19 43 -53 43h-33v-87h31c33 0 55 15 55 44z" />
    <glyph glyph-name="copyright" unicode="&#xa9;" horiz-adv-x="806" 
d="M764 345c0 -210 -138 -358 -345 -358c-206 0 -345 147 -345 358c0 210 139 358 345 358c207 0 345 -147 345 -358zM729 345c0 200 -127 329 -310 329c-185 0 -309 -129 -309 -329s127 -329 310 -329c185 0 309 129 309 329zM553 187c-35 -25 -79 -42 -126 -42
c-106 0 -179 83 -179 203s75 204 181 204c45 0 83 -14 118 -36l-9 -54c-37 28 -71 41 -110 41c-78 0 -127 -63 -127 -155s51 -155 127 -155c40 0 77 15 118 45z" />
    <glyph glyph-name="trademark" unicode="&#x2122;" horiz-adv-x="801" 
d="M783 345h-47l-20 265l-107 -266h-38l-106 266l-21 -265h-45l26 345h56l110 -283l110 283h55zM350 647h-109v-302h-47v302h-109v43h258z" />
    <glyph glyph-name="notequal" unicode="&#x2260;" horiz-adv-x="492" 
d="M431 204c0 -132 -99 -217 -233 -217c-67 0 -134 22 -190 56l20 60c58 -38 118 -59 175 -59c92 0 162 60 162 155c0 93 -67 134 -180 134h-20v47l241 239h-289v57h383l-8 -47l-248 -246c114 -11 187 -69 187 -179z" />
    <glyph glyph-name="infinity" unicode="&#x221e;" horiz-adv-x="454" 
d="M325 252c-185 -14 -238 -71 -238 -142c0 -40 23 -66 64 -66c43 0 91 29 154 89zM305 79c-52 -50 -107 -88 -167 -88c-66 0 -116 42 -116 115c0 99 71 178 311 193l4 24c11 74 -15 105 -80 105c-45 0 -92 -13 -151 -42v59c49 22 103 38 160 38c111 0 151 -60 134 -161
l-34 -209l-3 -113h-56z" />
    <glyph glyph-name="plusminus" unicode="&#xb1;" horiz-adv-x="571" 
d="M526 161h-112l-26 -161h-60l27 161h-327l7 45l383 476l59 -14l-365 -453h250l30 188l63 14l-33 -202h113z" />
    <glyph glyph-name="lessequal" unicode="&#x2264;" horiz-adv-x="842" 
d="M717 0h-64l91 578l-340 -581h-47l-154 581l-92 -578h-61l109 690h82l156 -600l347 600h82z" />
    <glyph glyph-name="greaterequal" unicode="&#x2265;" horiz-adv-x="652" 
d="M634 690l-110 -690h-49v84c-68 -52 -144 -92 -225 -92c-108 0 -174 52 -174 162c0 17 1 37 4 56l76 480h67l-75 -476c-3 -16 -4 -31 -4 -44c0 -79 42 -119 117 -119c68 0 141 36 220 99l86 540h67z" />
    <glyph glyph-name="mu" unicode="&#xb5;" horiz-adv-x="570" 
d="M437 132l-140 169l-194 -169l-35 41l195 167l-142 167l44 38l140 -169l194 169l35 -41l-195 -167l142 -167z" />
    <glyph glyph-name="partialdiff" unicode="&#x2202;" horiz-adv-x="690" 
d="M474 105l-159 135l84 15l116 -104c47 64 75 152 75 251c0 146 -75 242 -195 242c-147 0 -263 -155 -263 -356c0 -146 75 -242 194 -242c55 0 106 22 148 59zM562 110l69 -60l-23 -64l-88 79c-55 -49 -123 -78 -197 -78c-167 0 -261 128 -261 299c0 232 149 417 336 417
c168 0 262 -128 262 -299c0 -115 -37 -219 -98 -294z" />
    <glyph glyph-name="summation" unicode="&#x2211;" horiz-adv-x="972" 
d="M513 408l-214 -412h-54l-141 686l69 15l115 -602l207 402l-40 185l68 15l120 -602l294 595h73l-355 -694h-54z" />
    <glyph glyph-name="product" unicode="&#x220f;" horiz-adv-x="500" 
d="M25 -200v1000h450v-1000h-450z" />
    <glyph glyph-name="pi" unicode="&#x3c0;" horiz-adv-x="806" 
d="M764 345c0 -210 -138 -358 -345 -358c-206 0 -345 147 -345 358c0 210 139 358 345 358c207 0 345 -147 345 -358zM729 345c0 200 -127 329 -310 329c-185 0 -309 -129 -309 -329s127 -329 310 -329c185 0 309 129 309 329zM559 427c0 -80 -59 -120 -141 -120h-48v-157
h-53v393h108c80 0 134 -43 134 -116zM506 425c0 47 -32 71 -83 71h-53v-142h50c53 0 86 23 86 71z" />
    <glyph glyph-name="integral" unicode="&#x222b;" horiz-adv-x="477" 
d="M145 45c-75 -31 -109 -68 -109 -104c0 -46 56 -76 154 -76c93 0 149 43 149 84c0 32 -25 49 -99 69l-45 12c-19 5 -35 10 -50 15zM344 334c0 62 -37 99 -98 99c-74 0 -120 -62 -120 -126c0 -60 36 -99 97 -99c75 0 121 62 121 126zM363 441l124 39v-64l-97 -10
c11 -20 17 -43 17 -70c0 -100 -87 -176 -187 -176c-19 0 -37 2 -53 7c-21 -14 -32 -26 -31 -38c1 -18 16 -27 87 -45l39 -10c96 -26 141 -57 141 -116c0 -82 -91 -143 -215 -143c-127 0 -216 46 -216 118c0 54 33 93 124 137c-17 13 -26 28 -26 46c-1 26 21 48 54 70
c-38 25 -62 66 -62 118c0 99 85 178 187 178c46 0 85 -15 114 -41z" />
    <glyph glyph-name="Omega" unicode="&#x3a9;" horiz-adv-x="560" 
d="M333 655c-10 2 -26 4 -44 4c-44 0 -68 -24 -75 -69l-19 -117h95v-54h-103l-93 -591l-66 -11l95 602h-70l8 54h71l20 126c13 82 60 116 138 116c18 0 33 -1 43 -3v-57zM613 655c-9 2 -26 4 -44 4c-44 0 -68 -24 -75 -69l-19 -117h95v-54h-102l-94 -591l-65 -11l94 602h-70
l8 54h71l20 126c14 82 60 116 139 116c18 0 32 -1 42 -3v-57z" />
    <glyph glyph-name="logicalnot" unicode="&#xac;" horiz-adv-x="570" 
d="M525 310h-455l8 56h455z" />
    <glyph glyph-name="radical" unicode="&#x221a;" horiz-adv-x="784" 
d="M333 655c-10 2 -26 4 -44 4c-44 0 -68 -24 -75 -69l-19 -117h95v-54h-103l-93 -591l-66 -11l95 602h-70l8 54h71l20 126c13 82 60 116 138 116c18 0 33 -1 43 -3v-57zM613 655c-9 2 -26 4 -44 4c-44 0 -68 -24 -75 -69l-19 -117h95v-54h-102l-94 -591l-65 -11l94 602h-70
l8 54h71l20 126c14 82 60 116 139 116c18 0 32 -1 42 -3v-57zM780 718l-114 -718h-64l112 706z" />
    <glyph glyph-name="approxequal" unicode="&#x2248;" horiz-adv-x="784" 
d="M333 655c-10 2 -26 4 -44 4c-44 0 -68 -24 -75 -69l-19 -117h95v-54h-103l-93 -591l-66 -11l95 602h-70l8 54h71l20 126c13 82 60 116 138 116c18 0 33 -1 43 -3v-57zM613 655c-9 2 -26 4 -44 4c-44 0 -68 -24 -75 -69l-19 -117h95v-54h-102l-94 -591l-65 -11l94 602h-70
l8 54h71l20 126c14 82 60 116 139 116c18 0 32 -1 42 -3v-57zM782 635c0 -25 -21 -46 -47 -46c-25 0 -46 21 -46 46c0 26 21 47 46 47c26 0 47 -21 47 -47zM742 473l-76 -473h-64l76 473h64z" />
    <glyph glyph-name="Delta" unicode="&#x394;" horiz-adv-x="500" 
d="M25 -200v1000h450v-1000h-450z" />
    <glyph glyph-name="nbspace" unicode="&#xa0;" horiz-adv-x="108" 
 />
    <glyph glyph-name="Agrave" unicode="&#xc0;" horiz-adv-x="642" 
d="M574 8l-66 -15l-47 230h-277l-115 -223h-71l368 694h61zM449 282l-66 325l-169 -325h235zM418 742h-44l-116 134l86 19z" />
    <glyph glyph-name="Atilde" unicode="&#xc3;" horiz-adv-x="642" 
d="M574 8l-66 -15l-47 230h-277l-115 -223h-71l368 694h61zM449 282l-66 325l-169 -325h235zM567 852c-22 -69 -56 -104 -95 -104c-26 0 -42 9 -70 25c-34 21 -44 26 -60 26c-15 0 -29 -14 -44 -53l-44 9c22 69 56 104 95 104c27 0 43 -9 70 -25c34 -21 44 -26 60 -26
c15 0 30 15 44 53z" />
    <glyph glyph-name="Otilde" unicode="&#xd5;" horiz-adv-x="690" 
d="M660 404c0 -232 -149 -417 -337 -417c-167 0 -261 128 -261 299c0 232 149 417 336 417c168 0 262 -128 262 -299zM590 402c0 146 -75 242 -195 242c-147 0 -263 -155 -263 -356c0 -146 75 -242 194 -242c148 0 264 155 264 356zM588 865c-22 -69 -56 -104 -95 -104
c-26 0 -42 9 -70 25c-34 21 -44 26 -60 26c-15 0 -29 -14 -44 -53l-44 9c22 69 56 104 95 104c27 0 43 -9 70 -25c34 -21 44 -26 60 -26c15 0 30 15 44 53z" />
    <glyph glyph-name="divide" unicode="&#xf7;" horiz-adv-x="570" 
d="M362 477h-77l14 90h77zM525 311h-455l8 54h455zM304 109h-76l14 90h76z" />
    <glyph glyph-name="lozenge" unicode="&#x25ca;" horiz-adv-x="801" 
d="M783 345h-47l-20 265l-107 -266h-38l-106 266l-21 -265h-45l26 345h56l110 -283l110 283h55zM214 340c-38 0 -70 10 -95 24l5 46c28 -17 57 -29 92 -29c36 0 65 19 65 53c0 32 -18 49 -63 68c-69 30 -95 51 -95 103c0 53 44 90 104 90c33 0 61 -8 83 -20l-8 -45
c-24 15 -49 24 -77 24c-36 0 -58 -19 -58 -45c0 -30 17 -44 66 -65c65 -28 93 -53 93 -107c0 -61 -49 -97 -112 -97z" />
    <glyph glyph-name="ydieresis" unicode="&#xff;" horiz-adv-x="447" 
d="M457 473l-271 -539c-43 -86 -85 -114 -152 -114c-9 0 -20 2 -28 3v57c11 -2 21 -4 36 -4c36 0 61 20 85 65l33 62l-96 464l64 12l75 -399l187 393h67zM403 557h-83l14 88h83zM230 557h-82l14 88h83z" />
    <glyph glyph-name="Ydieresis" unicode="&#x178;" horiz-adv-x="589" 
d="M634 690l-298 -403l-45 -287h-67l45 286l-168 397l69 14l142 -350l246 343h76zM499 739h-83l14 88h83zM326 739h-82l14 88h83z" />
    <glyph glyph-name="Acircumflex" unicode="&#xc2;" horiz-adv-x="642" 
d="M574 8l-66 -15l-47 230h-277l-115 -223h-71l368 694h61zM449 282l-66 325l-169 -325h235zM531 736l-34 -7l-82 86l-106 -83h-44l128 145h61z" />
    <glyph glyph-name="Ecircumflex" unicode="&#xca;" horiz-adv-x="472" 
d="M496 690l-10 -59h-269l-38 -240h210v-60h-220l-43 -272h279l-9 -59h-347l110 690h337zM462 745l-34 -7l-82 86l-106 -83h-44l128 145h61z" />
    <glyph glyph-name="Aacute" unicode="&#xc1;" horiz-adv-x="642" 
d="M574 8l-66 -15l-47 230h-277l-115 -223h-71l368 694h61zM449 282l-66 325l-169 -325h235zM583 876l-155 -134h-54l119 153z" />
    <glyph glyph-name="Edieresis" unicode="&#xcb;" horiz-adv-x="472" 
d="M496 690l-10 -59h-269l-38 -240h210v-60h-220l-43 -272h279l-9 -59h-347l110 690h337zM461 748h-83l14 88h83zM288 748h-82l14 88h83z" />
    <glyph glyph-name="Egrave" unicode="&#xc8;" horiz-adv-x="472" 
d="M496 690l-10 -59h-269l-38 -240h210v-60h-220l-43 -272h279l-9 -59h-347l110 690h337zM376 741h-44l-116 134l86 19z" />
    <glyph glyph-name="Iacute" unicode="&#xcd;" horiz-adv-x="255" 
d="M233 690l-110 -690h-67l110 690h67zM385 875l-155 -134h-54l119 153z" />
    <glyph glyph-name="Icircumflex" unicode="&#xce;" horiz-adv-x="255" 
d="M233 690l-110 -690h-67l110 690h67zM335 736l-34 -7l-82 86l-106 -83h-44l128 145h61z" />
    <glyph glyph-name="Idieresis" unicode="&#xcf;" horiz-adv-x="255" 
d="M233 690l-110 -690h-67l110 690h67zM334 748h-83l14 88h83zM161 748h-82l14 88h83z" />
    <glyph glyph-name="Igrave" unicode="&#xcc;" horiz-adv-x="255" 
d="M233 690l-110 -690h-67l110 690h67zM226 741h-44l-116 134l86 19z" />
    <glyph glyph-name="Oacute" unicode="&#xd3;" horiz-adv-x="690" 
d="M660 404c0 -232 -149 -417 -337 -417c-167 0 -261 128 -261 299c0 232 149 417 336 417c168 0 262 -128 262 -299zM590 402c0 146 -75 242 -195 242c-147 0 -263 -155 -263 -356c0 -146 75 -242 194 -242c148 0 264 155 264 356zM588 885l-155 -134h-54l119 153z" />
    <glyph glyph-name="Ocircumflex" unicode="&#xd4;" horiz-adv-x="690" 
d="M660 404c0 -232 -149 -417 -337 -417c-167 0 -261 128 -261 299c0 232 149 417 336 417c168 0 262 -128 262 -299zM590 402c0 146 -75 242 -195 242c-147 0 -263 -155 -263 -356c0 -146 75 -242 194 -242c148 0 264 155 264 356zM552 750l-34 -7l-82 86l-106 -83h-44
l128 145h61z" />
    <glyph glyph-name="apple" unicode="&#xf8ff;" horiz-adv-x="694" 
d="M644 -200h-208l-8 14h-163l-8 -14h-207v303c18 0 32 14 32 32c0 17 -14 32 -32 32v554h100l30 79h334l29 -79h101v-921zM400 563v-172h15v78h38v14h-38v66h43v14h-58zM184 563v-172h15v79h47v-79h15v172h-15v-79h-47v79h-15zM460 394c4 -2 15 -4 21 -4c20 0 31 11 31 36
v137h-16v-137c0 -16 -5 -22 -16 -22c-5 0 -15 3 -20 6v-16zM523 323v-46h8v13l7 7l16 -20h9l-19 26l18 20h-10l-21 -24v24h-8zM488 292l10 -15h9l-12 17c6 2 10 8 10 15c0 6 -6 14 -16 14h-21v-46h8v15h12zM426 276c15 0 24 11 24 24c0 12 -10 24 -24 24s-23 -12 -23 -24
c0 -13 9 -24 23 -24zM370 301l-13 22h-9l18 -29v-17h8v17l18 29h-9zM193 323v-46h33v7h-25v13h22v7h-22v12h25v7h-33zM132 323v-46h8v32l25 -32h7v46h-8v-32l-25 32h-7zM241 323l15 -47h8l10 34h1l11 -34h8l14 47h-8l-10 -35h-1l-10 35h-8l-11 -35h-1l-10 35h-8zM327 479
c-7 13 -12 22 -12 32s6 19 14 19s13 -9 13 -19c0 -12 -5 -21 -15 -32zM342 423c-3 -10 -11 -21 -18 -21c-10 0 -17 12 -17 27c0 11 6 24 15 33zM488 299h-12v17h11c6 0 10 -3 10 -8s-4 -9 -9 -9zM426 283c-9 0 -15 8 -15 17c0 8 6 17 15 17s16 -9 16 -17
c0 -9 -7 -17 -16 -17zM349 438l-16 31c13 12 23 26 23 42c0 15 -9 31 -27 31c-17 0 -28 -16 -28 -31s6 -24 14 -39c-15 -12 -23 -28 -23 -45c0 -22 13 -39 31 -39c13 0 22 12 27 24h1l12 -24l11 8l-16 30c5 12 10 25 13 39l-13 3c-2 -9 -6 -21 -9 -30z" />
    <glyph glyph-name="Ograve" unicode="&#xd2;" horiz-adv-x="690" 
d="M660 404c0 -232 -149 -417 -337 -417c-167 0 -261 128 -261 299c0 232 149 417 336 417c168 0 262 -128 262 -299zM590 402c0 146 -75 242 -195 242c-147 0 -263 -155 -263 -356c0 -146 75 -242 194 -242c148 0 264 155 264 356zM458 751h-44l-116 134l86 19z" />
    <glyph glyph-name="Uacute" unicode="&#xda;" horiz-adv-x="658" 
d="M652 690l-71 -451c-26 -162 -127 -250 -272 -250c-138 0 -229 77 -229 221c0 22 2 50 6 75l64 405h67l-65 -414c-3 -20 -5 -43 -5 -61c0 -104 59 -166 166 -166c115 0 182 74 202 202l70 439h67zM551 862l-155 -134h-54l119 153z" />
    <glyph glyph-name="Ucircumflex" unicode="&#xdb;" horiz-adv-x="658" 
d="M652 690l-71 -451c-26 -162 -127 -250 -272 -250c-138 0 -229 77 -229 221c0 22 2 50 6 75l64 405h67l-65 -414c-3 -20 -5 -43 -5 -61c0 -104 59 -166 166 -166c115 0 182 74 202 202l70 439h67zM529 736l-34 -7l-82 86l-106 -83h-44l128 145h61z" />
    <glyph glyph-name="Ugrave" unicode="&#xd9;" horiz-adv-x="658" 
d="M652 690l-71 -451c-26 -162 -127 -250 -272 -250c-138 0 -229 77 -229 221c0 22 2 50 6 75l64 405h67l-65 -414c-3 -20 -5 -43 -5 -61c0 -104 59 -166 166 -166c115 0 182 74 202 202l70 439h67zM439 728h-44l-116 134l86 19z" />
    </font>
</defs>
</svg>
